<svg xmlns="http://www.w3.org/2000/svg" width="1256" height="218" viewBox="0 0 1256 218">
  <defs>
    <style>
      .cls-1 {
        fill-rule: evenodd;
      }
    </style>
  </defs>
  <path id="Color_Fill_1" data-name="Color Fill 1" class="cls-1" d="M1073,13c10.92-.91,21.35,3.648,18,13-1.27,5.09-2.58,6.171-7,8-9.7,2.237-19.42-2.366-27,2q-5.505,23-11,46c9.8-6.591,19.13-17.83,35-15l6,6c0.32,24.737-10.13,39.733-14,61h1q4.995-5,10-10c1.67-.333,3.33-0.667,5-1q2.505,4,5,8c-3.39,11.565-19.74,23.177-34,24-2.33-1.333-4.67-2.667-7-4-6.16-23.779,7.86-43.488,11-65-24.59,10.853-28.01,36.824-34,66-0.67.333-1.33,0.667-2,1-7.12.268-14.67,0.095-19-2,1.38-22.59,21.66-105.077,32-119C1048.85,21.427,1060.12,18.938,1073,13ZM542,21c12.6-.42,18.2,2.23,25,7,1.191,3.765,2.858,7.705,1,12-1.93,4.009-3.013,4.152-7,6-8.655-1.183-10.679-5.781-16-10-21.522,9.055-29.254,77.036-38,103,7.589-.274,16.282-0.271,21,2-0.021,6.141-1.016,8.422-3,12-13.2.272-34.35,2.486-44-2q7-27.5,14-55h-5l-25,2c-9.708,28.74-27.627,80.172-68,54-1.306-4.448-1.929-6.93-1-12l5-4,6-1,12,10c15.508-6.212,33.453-74.9,36-97-11.922.629-23.031,4.267-27,13-1.206,6.816,3,9.694,4,18-2.971,6.418-6.572,8.883-15,7-31.932-23.817,29.3-65.95,63-51,2.055,1.355,1.609,1.12,3,3-4.351,14.261-11.13,27.558-14,44h18l13-1C504.394,50.533,518.294,33,542,21Zm596,5,8,1c1.67,2,3.33,4,5,6,1.23,4.563.19,7.689-1,12-4.31,3.183-5.66,5.313-13,6l-3-1c-1.67-2-3.33-4-5-6-1.9-6.238.12-12.427,5-15C1135.33,28,1136.67,27,1138,26ZM78,32c109.449-2.836,82.513,137.537-23,121-10.2-1.6-22.588,1.486-30-2v-4c4.16-5.981,11.762-6.35,18-10,4.7-24.056,15.368-48.886,20-75-7.641-1.207-6.448-5.384-4-11-14.17,4.5-42.594,26.795-35,51,2.994,9.544,13.092,7.438,15,20-1.622,3.2-1.849,4.189-5,6l-7,2c-36.458-17.886-8.342-69.858,12-84C50.282,38.157,63.745,37.7,78,32Zm898,1c12.809-.237,22,1.672,32,4,2.14,6.794-2.37,31.929-7,40l-10-2c0.5-12.877,1.109-19.631-4-27l-2-1c-13.116-.386-20.778,4.664-24,14V73c5,11.052,16.227,16.674,23,26,19.09,26.292-.644,54.818-23,64-19.648,8.07-69.375,1.618-57-27,1.72-4.17,2.877-5.234,7-7h8c7.8,6.57,6.47,18.915,17,23,15.413,5.931,36.119-11.043,34-26-3.774-26.642-61.309-45.249-17-83C959.438,37.515,967.726,37.07,976,33ZM75,46L62,49v1l21-3Zm11,0,4,4c-9.581,28.363-13.734,63.89-26,90h2C116.926,161.851,153.267,51.034,86,46ZM397,64h3l4,4-16,55c-8.22,32.737.151,62.634-28,75-45.042,19.786-75.324-25.807-31-47-18.681-29.874,15.311-71.6,36-80C374.708,67.059,388.467,68.365,397,64ZM195,66c63.232-2.32,21.944,106-27,88-29.578-10.88-12.8-56.984,0-73C174.5,72.871,184.929,70.793,195,66Zm68,0,11,2q0.5,6.5,1,13l3-3c9.688-4.358,13.988-11.166,28-12l7,4c5.98,23.178-9.118,42.783-12,65,5.823-3.458,8.527-8.095,16-10l5,7c-7.371,10.264-19.909,25.066-37,22l-5-6c-5.983-21.194,8.548-43.488,12-62h-1c-30.808,16.663-19.278,38.57-35,67-7.123.268-14.672,0.095-19-2l14-64-11,9-8-6V87C242.372,79.233,250.709,73,263,66Zm303,0,5,1c18.59,9.4,16.247,37.2,25,57v-2c10.427-14.9,2.243-36.282,6-53,4.452-2.209,7.148-3.112,13-2l5,6c14.41,29.67-37.767,106.741-53,118-8.027,5.933-30.736,17.5-42,7-2.66-1.741-2.615-1.917-4-5v-7l5-6c9.5-.515,24.608,3.356,32-1,24.461-14.413,24.419-74.4,2-93l-13,9-4-1-4-8C546.316,76.854,555.979,72.519,566,66Zm100,0,16,2c24.977,33.28-20.93,39.872-36,54-0.178,5.76.388,9.73,2,13h1c11.3-1.516,19.414-10.105,27-16l3,1c2.236,3.573,3.347,4.269,4,10v1c-14.167,11.1-34.5,33.4-57,18C613.568,108.5,638.247,79.962,666,66Zm71,0c63.232-2.32,21.944,106-27,88-29.578-10.88-12.8-56.984,0-73C716.5,72.871,726.929,70.793,737,66Zm69,0,11,2q0.5,6.5,1,13l3-3c9.688-4.358,13.988-11.166,28-12l7,4c5.98,23.178-9.118,42.783-12,65,5.823-3.458,8.527-8.095,16-10l5,7c-7.371,10.264-19.909,25.066-37,22l-5-6c-5.983-21.194,8.548-43.488,12-62h-1c-30.808,16.663-19.278,38.57-35,67-7.123.268-14.672,0.095-19-2l14-64-11,9-8-6V87C785.372,79.233,793.709,73,806,66Zm320,0,10,1c1.67,2,3.33,4,5,6q-7.995,31-16,62,6.495-5.5,13-11c2.33,1.666,4.67,3.334,7,5v6c-10.03,7.829-19.52,22.1-37,19-13.96-11.1,2.34-52.495,8-66q-4.995,4-10,8c-2.67-1-5.33-2-8-3-0.33-2.333-.67-4.667-1-7C1106.67,78.751,1114.8,72.9,1126,66Zm52,0,11,2q0.495,6.5,1,13l3-3c9.69-4.358,13.99-11.166,28-12,2.33,1.333,4.67,2.667,7,4,5.98,23.178-9.12,42.783-12,65,5.82-3.458,8.53-8.095,16-10q2.505,3.5,5,7c-7.37,10.264-19.91,25.066-37,22-1.67-2-3.33-4-5-6-5.98-21.194,8.55-43.488,12-62h-1c-30.81,16.663-19.28,38.57-35,67-7.12.268-14.67,0.095-19-2q7.005-32,14-64-5.505,4.5-11,9-4.005-3-8-6V87C1157.37,79.233,1165.71,73,1178,66ZM191,81c-10.766,9.71-27.177,44.384-8,59,16.251-1.871,32.031-47.493,13-58Zm471,0c-6.925,6.777-9.393,13.482-13,24,7.269-4.327,12.422-9.1,18-15q-0.5-4.5-1-9h-4Zm71,0c-10.766,9.71-27.177,44.384-8,59,16.251-1.871,32.031-47.493,13-58ZM369,86c-12.325,6.637-30.78,28.55-21,49h4c15.763-12.857,17.093-26.664,25-48V86h-8Zm-6,57c-10.82,12.073-35.4,16.413-38,36a94.072,94.072,0,0,0,8,8C353.03,187.627,373.629,166.334,363,143Z"/>
</svg>
